<?xml version="1.0" standalone="no"?>
<!DOCTYPE svg PUBLIC "-//W3C//DTD SVG 1.1//EN" "http://www.w3.org/Graphics/SVG/1.1/DTD/svg11.dtd" >
<svg xmlns="http://www.w3.org/2000/svg" xmlns:xlink="http://www.w3.org/1999/xlink" version="1.1">
<metadata></metadata>
<defs>
<font id="expresswaylight" horiz-adv-x="1161" >
<font-face units-per-em="2048" ascent="1573" descent="-475" />
<missing-glyph horiz-adv-x="653" />
<glyph horiz-adv-x="0" />
<glyph horiz-adv-x="682" />
<glyph unicode=" "  horiz-adv-x="653" />
<glyph unicode="&#x09;" horiz-adv-x="653" />
<glyph unicode="&#xa0;" horiz-adv-x="653" />
<glyph unicode="!" horiz-adv-x="288" d="M55 51q0 36 23.5 61t58.5 25q37 0 62.5 -25.5t25.5 -60.5t-25.5 -58.5t-62.5 -23.5q-35 0 -58.5 23.5t-23.5 58.5zM74 344v1073h119v-1073h-119z" />
<glyph unicode="&#x22;" horiz-adv-x="518" d="M61 1505h111l-27 -596h-61zM346 1505h109l-27 -596h-61z" />
<glyph unicode="#" horiz-adv-x="1144" d="M25 379v104h249l82 426h-250v105h271l78 403h108l-80 -403h312l79 403h107l-80 -403h211v-105h-231l-84 -426h233v-104h-254l-76 -379h-104l74 379h-312l-75 -379h-105l76 379h-229zM379 483h313l82 426h-311z" />
<glyph unicode="$" horiz-adv-x="905" d="M27 291l77 92q60 -60 150.5 -89.5t189.5 -29.5q53 0 102 9t95 29t74 58.5t28 90.5q0 57 -27.5 99t-71 64.5t-102.5 43.5t-115.5 36.5t-117.5 43.5t-102 63q-101 87 -101 207q0 114 84 182.5t211 81.5v145h117v-145q81 -11 152.5 -45.5t117.5 -89.5l-90 -76 q-37 46 -103.5 70t-141.5 24q-93 0 -161.5 -37.5t-68.5 -107.5q0 -55 36 -95t97.5 -66t128 -47.5t143 -53.5t126.5 -70q114 -89 114 -211q0 -77 -29 -136.5t-79.5 -96.5t-111 -57.5t-130.5 -26.5v-150h-117v147q-107 8 -194.5 41t-179.5 103z" />
<glyph unicode="%" horiz-adv-x="1382" d="M45 1133q0 123 87 211t210 88t210 -88t87 -211t-87 -210t-210 -87t-210 87t-87 210zM152 1130q0 -80 55 -135t135 -55q78 0 134 55.5t56 134.5t-56 136t-134 57q-79 0 -134.5 -56.5t-55.5 -136.5zM178 0l883 1417h129l-889 -1417h-123zM735 283q0 123 87 211t210 88 t211 -88t88 -211t-88 -210t-211 -87t-210 87t-87 210zM844 281q0 -80 54.5 -135.5t133.5 -55.5q80 0 136.5 56t56.5 135t-56.5 135.5t-136.5 56.5q-79 0 -133.5 -56t-54.5 -136z" />
<glyph unicode="&#x26;" horiz-adv-x="1306" d="M45 428q0 106 52 203t155 174q-102 142 -102 297q0 88 40 165.5t117.5 127t175.5 49.5q218 0 320 -125l-90 -98q-79 90 -224 90q-85 0 -147.5 -52t-62.5 -149q0 -94 61 -203t166 -215t219 -198t246 -181q95 119 108 314h129q-7 -124 -37 -212t-92 -175l195 -131l-66 -109 l-213 141q-156 -170 -438 -170q-119 0 -217.5 37.5t-162 100.5t-98 145.5t-34.5 173.5zM172 430q0 -138 103.5 -235t265.5 -97q110 0 186.5 30.5t153.5 94.5q-177 127 -307.5 237t-243.5 240q-158 -113 -158 -270z" />
<glyph unicode="'" horiz-adv-x="219" d="M53 1505h109l-27 -596h-61z" />
<glyph unicode="(" horiz-adv-x="481" d="M35 530q0 464 278 887h123q-293 -381 -293 -887q0 -230 72 -445t225 -437h-127q-143 211 -210.5 426t-67.5 456z" />
<glyph unicode=")" horiz-adv-x="483" d="M37 -354q153 221 225 437.5t72 446.5q0 506 -293 887h123q278 -423 278 -887q0 -240 -67.5 -453t-210.5 -431h-127z" />
<glyph unicode="*" horiz-adv-x="804" d="M29 1106l37 111l276 -93v293h115v-293l276 93l37 -111l-281 -90l177 -234l-99 -75l-168 229l-168 -229l-98 75l176 234z" />
<glyph unicode="+" horiz-adv-x="745" d="M10 645v103h322v303h100v-303h295v-103h-295v-311h-100v311h-322z" />
<glyph unicode="," horiz-adv-x="303" d="M29 -285l127 379l125 -51l-172 -365z" />
<glyph unicode="-" horiz-adv-x="737" d="M66 475v117h600v-117h-600z" />
<glyph unicode="." horiz-adv-x="260" d="M45 49q0 36 22.5 61t57.5 25t59.5 -25.5t24.5 -60.5q0 -33 -24.5 -56.5t-59.5 -23.5t-57.5 23.5t-22.5 56.5z" />
<glyph unicode="/" horiz-adv-x="714" d="M10 -154l580 1571h112l-581 -1571h-111z" />
<glyph unicode="0" horiz-adv-x="1140" d="M47 707q0 237 67.5 406t184 252t270.5 83q234 0 377.5 -193.5t143.5 -547.5t-143 -546t-378 -192q-236 0 -379 192t-143 546zM176 707q0 -304 102 -457.5t291 -153.5t291.5 153.5t102.5 457.5t-102.5 457t-291.5 153t-291 -153t-102 -457z" />
<glyph unicode="1" horiz-adv-x="395" d="M33 1169v109q157 21 178 139h113v-1417h-131v1169h-160z" />
<glyph unicode="2" horiz-adv-x="1079" d="M53 0q18 239 104 402.5t281 283.5q35 22 103.5 57t118.5 64t102.5 69.5t81 93.5t28.5 117q0 75 -47.5 129t-119 78.5t-156.5 24.5q-103 0 -198 -34.5t-150 -98.5l-92 92q71 80 190 124t244 44q91 0 173 -23t148 -67t105 -115.5t39 -161.5q0 -66 -23.5 -124t-57 -98.5 t-88.5 -82t-99.5 -66.5t-110.5 -61.5t-101 -58.5q-261 -164 -319 -459h809v-129h-965z" />
<glyph unicode="3" horiz-adv-x="1054" d="M37 135l84 101q58 -58 159.5 -88.5t198.5 -30.5q182 0 291 85.5t109 211.5q0 124 -85 210.5t-233 86.5h-106v125h102q96 0 159.5 73t63.5 174q0 104 -85 162t-203 58q-83 0 -162 -33.5t-119 -91.5l-88 92q48 76 149 119t220 43q82 0 155 -21t131 -61t92.5 -105.5 t34.5 -148.5q0 -223 -186 -312q128 -24 207.5 -126.5t79.5 -235.5q0 -195 -147.5 -315.5t-381.5 -120.5q-127 0 -250.5 39.5t-189.5 109.5z" />
<glyph unicode="4" horiz-adv-x="1142" d="M16 266v125l811 1026h109v-1024h154v-127h-154v-266h-131v266h-789zM172 391h633v803z" />
<glyph unicode="5" horiz-adv-x="1114" d="M43 137l82 101q151 -121 377 -121q198 0 314 107.5t116 277.5q0 114 -52 196t-134 120t-183 38q-100 0 -176.5 -29.5t-165.5 -95.5l-110 49l65 637h752v-131h-641l-43 -401q92 57 166 76.5t159 19.5q216 0 354 -129.5t138 -353.5q0 -107 -32.5 -194t-87 -145t-128.5 -98 t-155.5 -57.5t-170.5 -17.5q-251 0 -444 151z" />
<glyph unicode="6" horiz-adv-x="1153" d="M41 569q0 170 56.5 336t150.5 277q66 78 139 128.5t157.5 75t163.5 33t189 8.5v-129q-76 0 -141 -7t-134 -25t-125.5 -48t-110.5 -79t-94 -113.5t-70.5 -155.5t-45.5 -202q38 65 86 109.5t105 67.5t113 32.5t124 9.5q216 0 360 -126.5t144 -311.5q0 -192 -152.5 -326.5 t-373.5 -134.5q-140 0 -247 48.5t-169.5 131.5t-93.5 184t-31 217zM180 451q22 -148 122.5 -242t277.5 -94q182 0 290.5 97t108.5 237q0 135 -112.5 225t-274.5 90q-155 0 -271.5 -84.5t-140.5 -228.5z" />
<glyph unicode="7" horiz-adv-x="1046" d="M41 1286v131h973v-119q-126 -144 -216.5 -294.5t-149.5 -315t-94 -324.5t-62 -364h-132q91 851 484 1286h-803z" />
<glyph unicode="8" horiz-adv-x="1148" d="M43 418q0 135 79 238.5t208 127.5q-97 47 -142 122.5t-45 187.5q0 83 36.5 149.5t97.5 106.5t136 61t158 21t158 -21t136 -60.5t97.5 -105t36.5 -147.5q0 -225 -186 -314q127 -24 206 -127.5t79 -238.5q0 -193 -146.5 -312.5t-380.5 -119.5t-381 119.5t-147 312.5z M170 414q0 -124 110 -211.5t291 -87.5q180 0 291 88t111 211q0 163 -97 234t-305 71q-213 0 -307 -82.5t-94 -222.5zM270 1087q0 -137 69 -199.5t232 -62.5q299 0 299 262q0 66 -45 117t-112 76t-142 25q-118 0 -209.5 -59.5t-91.5 -158.5z" />
<glyph unicode="9" horiz-adv-x="1150" d="M37 967q0 143 70.5 249.5t188 160t265.5 53.5q113 0 205.5 -32t154 -87t104 -130.5t61 -159.5t18.5 -177q0 -172 -56 -336t-151 -275q-65 -77 -138.5 -127t-158.5 -74.5t-164 -33t-188 -8.5v127q76 0 141.5 7t134 25.5t125 48.5t110 78.5t93.5 113.5t70.5 155.5 t46.5 202.5q-38 -65 -86 -110t-105 -68t-113 -32.5t-124 -9.5q-110 0 -201 27.5t-159 81t-106 138t-38 192.5zM166 967q0 -156 108.5 -236t278.5 -80q155 0 271.5 84.5t140.5 227.5q-10 70 -39 129t-76.5 106.5t-120.5 74.5t-164 27q-194 0 -296.5 -84.5t-102.5 -248.5z" />
<glyph unicode=":" horiz-adv-x="276" d="M51 49q0 36 22.5 61t57.5 25t59.5 -25.5t24.5 -60.5q0 -33 -24.5 -56.5t-59.5 -23.5t-57.5 23.5t-22.5 56.5zM57 907q0 36 22.5 60t57.5 24t59.5 -24.5t24.5 -59.5q0 -33 -24.5 -56.5t-59.5 -23.5t-57.5 23.5t-22.5 56.5z" />
<glyph unicode=";" horiz-adv-x="309" d="M10 -285l127 379l127 -51l-172 -365zM100 907q0 36 22.5 60t57.5 24t60.5 -24.5t25.5 -59.5q0 -32 -25.5 -56t-60.5 -24t-57.5 23.5t-22.5 56.5z" />
<glyph unicode="&#x3c;" horiz-adv-x="933" d="M2 641v107l883 319v-119l-746 -256l746 -256v-110z" />
<glyph unicode="=" horiz-adv-x="811" d="M66 442v103h716v-103h-716zM66 848v102h716v-102h-716z" />
<glyph unicode="&#x3e;" horiz-adv-x="954" d="M66 326v110l747 256l-747 256v119l882 -319v-107z" />
<glyph unicode="?" horiz-adv-x="858" d="M25 1307q158 125 376 125q85 0 159.5 -21t133.5 -61.5t93 -106.5t34 -151q0 -67 -18.5 -127t-48.5 -105.5t-66.5 -87.5t-73.5 -83t-68 -82.5t-52.5 -94.5t-24.5 -111h-127q10 175 102 289q23 28 64 71.5t68.5 75t56.5 72.5t44 86t15 95q0 109 -80 161t-202 52 q-186 0 -306 -103zM313 51q0 36 24 61t60 25q35 0 60.5 -25.5t25.5 -60.5t-25 -58.5t-61 -23.5q-37 0 -60.5 23.5t-23.5 58.5z" />
<glyph unicode="@" horiz-adv-x="1452" d="M45 606q0 209 94 374t256 255t361 90q107 0 204.5 -23t182 -72.5t146 -120.5t97 -173t35.5 -225q0 -186 -89.5 -300t-246.5 -114q-105 0 -165 86q-37 -26 -89.5 -42.5t-99.5 -16.5q-111 0 -177.5 79t-66.5 189q0 123 72 191.5t201 68.5q63 0 114 -31v37h107v-391 q43 -76 127 -76q64 0 114 48.5t72.5 114.5t22.5 132q0 131 -44 236t-119.5 170.5t-172.5 100t-207 34.5q-145 0 -264.5 -52t-196.5 -140t-119 -201t-42 -238q0 -237 135 -410q83 -106 191.5 -154t269.5 -71l-21 -102q-179 28 -303 84.5t-219 179.5q-160 201 -160 483z M588 592q0 -74 39.5 -124t103.5 -50q87 0 146 41v266q-59 35 -129 35q-81 0 -120.5 -47t-39.5 -121z" />
<glyph unicode="A" d="M10 0l508 1417h125l508 -1417h-152l-100 293h-643l-98 -293h-148zM295 416h565l-282 825z" />
<glyph unicode="B" horiz-adv-x="1110" d="M72 0v1417h510q162 0 261 -97.5t99 -258.5q0 -124 -49 -196t-135 -120q48 -9 98.5 -37t96 -71.5t75 -108.5t29.5 -139q0 -192 -119.5 -290.5t-329.5 -98.5h-536zM201 125h430q135 0 217 68t82 194q0 82 -49 147.5t-122 98.5t-153 33h-405v-541zM201 786h381 q91 0 162 80.5t71 175.5q0 107 -65 176.5t-168 69.5h-381v-502z" />
<glyph unicode="C" horiz-adv-x="1153" d="M49 707q0 178 46 320t127.5 233t191 139.5t239.5 48.5q144 0 261 -57t194 -166l-96 -74q-127 166 -361 166q-219 0 -345 -156t-126 -454q0 -295 126.5 -453t344.5 -158q219 0 348 152l99 -72q-162 -207 -445 -207q-130 0 -239.5 48t-191 138.5t-127.5 232t-46 319.5z" />
<glyph unicode="D" horiz-adv-x="1210" d="M72 0v1417h360q149 0 283 -54.5t231 -148t154 -224.5t57 -277q0 -196 -96.5 -360t-263 -258.5t-365.5 -94.5h-360zM203 127h231q121 0 229 44.5t186.5 121t124.5 185t46 231.5q0 171 -78.5 303.5t-211.5 203t-296 70.5h-231v-1159z" />
<glyph unicode="E" horiz-adv-x="897" d="M72 0v1417h743v-131h-614v-495h381v-129h-381v-537h630v-125h-759z" />
<glyph unicode="F" horiz-adv-x="839" d="M72 0v1417h743v-131h-614v-520h393v-129h-393v-637h-129z" />
<glyph unicode="G" horiz-adv-x="1245" d="M49 707q0 353 168.5 547t439.5 194q306 0 459 -236l-100 -65q-133 170 -361 170q-221 0 -348 -156t-127 -454q0 -295 127.5 -453t347.5 -158q178 0 292 114.5t114 283.5v47h-369v125h500v-158q0 -108 -35.5 -204.5t-101.5 -171.5t-169.5 -119t-230.5 -44q-131 0 -241 48 t-191.5 138.5t-127.5 232t-46 319.5z" />
<glyph unicode="H" horiz-adv-x="1132" d="M72 0v1417h129v-626h729v626h129v-1417h-129v662h-729v-662h-129z" />
<glyph unicode="I" horiz-adv-x="274" d="M72 0v1417h129v-1417h-129z" />
<glyph unicode="J" horiz-adv-x="964" d="M8 201l96 84q49 -81 124.5 -126.5t170.5 -45.5q149 0 256 114.5t107 274.5v915h129v-915q0 -145 -66.5 -264t-179.5 -185.5t-248 -66.5q-126 0 -231 56.5t-158 158.5z" />
<glyph unicode="K" horiz-adv-x="1085" d="M72 0v1417h129v-864l643 864h168l-432 -565l464 -852h-157l-387 748l-299 -390v-358h-129z" />
<glyph unicode="L" horiz-adv-x="927" d="M72 0v1417h129v-1292h706v-125h-835z" />
<glyph unicode="M" horiz-adv-x="1468" d="M72 0v1417h170l491 -1151l492 1151h170v-1417h-129v1190l-508 -1190h-49l-508 1190v-1190h-129z" />
<glyph unicode="N" horiz-adv-x="1167" d="M72 0v1417h159l732 -1216v1216h131v-1417h-160l-733 1217v-1217h-129z" />
<glyph unicode="O" horiz-adv-x="1290" d="M49 707q0 354 163.5 547.5t430.5 193.5t430.5 -193.5t163.5 -547.5q0 -178 -44 -319t-123.5 -232.5t-187.5 -139t-239 -47.5t-239 47.5t-187.5 139t-123.5 232.5t-44 319zM180 707q0 -297 122.5 -454t340.5 -157t340.5 157t122.5 454q0 303 -121 456.5t-342 153.5 t-342 -153.5t-121 -456.5z" />
<glyph unicode="P" horiz-adv-x="1052" d="M72 0v1417h514q205 0 325.5 -105.5t120.5 -303.5q0 -200 -121 -308t-325 -108h-385v-592h-129zM201 717h387q143 0 229 72.5t86 216.5q0 143 -85.5 212.5t-229.5 69.5h-387v-571z" />
<glyph unicode="Q" horiz-adv-x="1288" d="M49 707q0 354 163.5 547.5t430.5 193.5t430.5 -193.5t163.5 -547.5q0 -396 -207 -590l96 -125l-96 -76l-100 127q-124 -74 -287 -74q-131 0 -239 47.5t-187.5 139t-123.5 232.5t-44 319zM180 707q0 -297 122.5 -454t340.5 -157q124 0 207 51l-170 222l98 75l172 -225 q156 159 156 488q0 303 -121 456.5t-342 153.5t-342 -153.5t-121 -456.5z" />
<glyph unicode="R" horiz-adv-x="1083" d="M72 0v1417h514q205 0 325.5 -104.5t120.5 -302.5q0 -173 -91 -275.5t-247 -128.5l334 -606h-158l-311 592h-358v-592h-129zM201 717h387q143 0 229 72.5t86 216.5q0 143 -85.5 212.5t-229.5 69.5h-387v-571z" />
<glyph unicode="S" horiz-adv-x="1157" d="M37 170l88 92q73 -76 193.5 -116t254.5 -40q191 0 297.5 71.5t106.5 195.5q0 127 -139 223q-57 40 -129.5 68t-132 42t-135.5 43.5t-138 71.5q-160 110 -160 277q0 153 120.5 243.5t318.5 90.5q134 0 248 -45.5t182 -124.5l-97 -86q-117 129 -325 129q-87 0 -158.5 -20.5 t-119.5 -69t-48 -117.5q0 -68 47 -120t126 -87t162 -62t176.5 -61t148.5 -70q88 -60 135 -136t47 -191q0 -86 -31.5 -154t-82 -111t-120 -71t-140 -39.5t-146.5 -11.5q-167 0 -313.5 45t-235.5 141z" />
<glyph unicode="T" horiz-adv-x="1007" d="M8 1286v131h987v-131h-426v-1286h-129v1286h-432z" />
<glyph unicode="U" horiz-adv-x="1138" d="M70 502v915h129v-915q0 -160 107.5 -274.5t260.5 -114.5q151 0 260 114.5t109 274.5v915h129v-915q0 -145 -68 -264t-182 -185.5t-248 -66.5t-248 66.5t-181.5 185.5t-67.5 264z" />
<glyph unicode="V" d="M8 1417h152l420 -1235l421 1235h148l-508 -1417h-125z" />
<glyph unicode="W" horiz-adv-x="1718" d="M8 1417h148l301 -1212l331 1212h144l332 -1212l301 1212h141l-373 -1417h-143l-334 1182l-334 -1182h-141z" />
<glyph unicode="X" horiz-adv-x="1142" d="M53 0l441 715l-441 702h156l364 -598l361 598h151l-444 -708l444 -709h-157l-363 596l-358 -596h-154z" />
<glyph unicode="Y" horiz-adv-x="1105" d="M8 1417h150l393 -827l395 827h148l-478 -987v-430h-131v432z" />
<glyph unicode="Z" horiz-adv-x="993" d="M66 0v113l725 1177h-693v127h850v-117l-725 -1177h725v-123h-882z" />
<glyph unicode="[" horiz-adv-x="423" d="M66 -354v1771h307v-104h-203v-1567h221v-100h-325z" />
<glyph unicode="\" horiz-adv-x="712" d="M8 1417h113l579 -1571h-110z" />
<glyph unicode="]" horiz-adv-x="425" d="M29 -254h221v1567h-203v104h307v-1771h-325v100z" />
<glyph unicode="^" horiz-adv-x="708" d="M57 741l242 676h107l241 -676h-112l-185 539l-186 -539h-107z" />
<glyph unicode="_" horiz-adv-x="1105" d="M-4 -55h1114v-113h-1114v113z" />
<glyph unicode="`" horiz-adv-x="411" d="M14 1436l70 84l307 -287l-41 -53z" />
<glyph unicode="a" horiz-adv-x="921" d="M45 324q0 171 106 260.5t300 89.5q177 0 276 -99q0 74 -4.5 126.5t-21 107.5t-45 88t-79.5 54.5t-122 21.5q-76 0 -145 -25.5t-109 -58.5l-62 110q38 40 128 69.5t202 29.5q187 0 284 -104.5t97 -307.5v-686h-123v131q-42 -76 -122 -118t-185 -42q-93 0 -177 39 t-141 121.5t-57 192.5zM168 324q0 -109 74.5 -172.5t193.5 -63.5q99 0 179.5 61.5t111.5 137.5v139q-39 61 -114.5 97t-172.5 36q-131 0 -201.5 -59.5t-70.5 -175.5z" />
<glyph unicode="b" horiz-adv-x="991" d="M72 0v1450l129 43v-557q50 80 130.5 121t176.5 41q195 0 312.5 -147t117.5 -419q0 -268 -120.5 -415.5t-315.5 -147.5q-102 0 -189 45t-118 121v-135h-123zM195 342q41 -109 116 -179.5t181 -70.5q147 0 234 113t87 330t-88 327.5t-242 110.5q-186 0 -288 -236v-395z" />
<glyph unicode="c" horiz-adv-x="913" d="M49 532q0 272 128.5 419t338.5 147q119 0 213 -53t141 -150l-98 -86q-82 162 -260 162q-154 0 -244 -112t-90 -327q0 -212 90.5 -325t243.5 -113q76 0 141 37.5t109 101.5l96 -83q-60 -82 -151 -131.5t-199 -49.5q-204 0 -331.5 147.5t-127.5 415.5z" />
<glyph unicode="d" horiz-adv-x="962" d="M49 532q0 275 111.5 420.5t304.5 145.5q199 0 293 -162v514l131 43v-1493h-123v135q-32 -74 -115 -120t-182 -46q-192 0 -306 146.5t-114 416.5zM174 535q0 -219 79 -331t224 -112q197 0 289 250v395q-94 236 -281 236q-151 0 -231 -109t-80 -329z" />
<glyph unicode="e" horiz-adv-x="991" d="M49 532q0 273 121.5 419.5t323.5 146.5q199 0 320.5 -147t121.5 -406q0 -32 -6 -53h-752q7 -195 95.5 -297.5t238.5 -102.5q79 0 146.5 29.5t111.5 85.5l86 -76q-56 -77 -149 -119.5t-199 -42.5q-204 0 -331.5 147.5t-127.5 415.5zM180 606h627q-13 183 -94.5 276 t-218.5 93q-139 0 -220 -93t-94 -276z" />
<glyph unicode="f" horiz-adv-x="421" d="M2 948v121h109v203q0 103 50.5 156t139.5 53q59 0 111 -21v-121q-32 19 -88 19q-82 0 -82 -90v-199h170v-121h-170v-948h-131v948h-109z" />
<glyph unicode="g" horiz-adv-x="978" d="M49 543q0 268 117.5 411.5t310.5 143.5q99 0 182 -44t119 -118v131h127v-834q0 -100 -11.5 -179t-39.5 -150t-74.5 -125t-117 -97.5t-166.5 -74.5q-6 19 -18 57.5t-19 59.5q321 113 321 428q-100 -160 -301 -160q-198 0 -314 141.5t-116 409.5zM172 545 q0 -217 84.5 -323.5t237.5 -106.5q185 0 286 229v387q-41 109 -114 178.5t-179 69.5q-146 0 -230.5 -111t-84.5 -323z" />
<glyph unicode="h" horiz-adv-x="913" d="M66 0v1450l129 43v-557q52 83 133.5 122.5t179.5 39.5q163 0 263.5 -108.5t100.5 -319.5v-670h-131v657q0 312 -254 312q-99 0 -170.5 -56t-121.5 -178v-735h-129z" />
<glyph unicode="i" horiz-adv-x="286" d="M68 1358q0 31 20.5 53.5t50.5 22.5q31 0 52.5 -22.5t21.5 -53.5q0 -29 -21.5 -50.5t-52.5 -21.5q-30 0 -50.5 21t-20.5 51zM76 0v1069h129v-1069h-129z" />
<glyph unicode="j" horiz-adv-x="337" d="M-6 -221q63 0 98 36t35 103v1151h129v-1151q0 -112 -70 -194t-192 -82v137zM119 1358q0 31 20.5 53.5t50.5 22.5q31 0 52.5 -22.5t21.5 -53.5q0 -29 -21.5 -50.5t-52.5 -21.5q-30 0 -50.5 21t-20.5 51z" />
<glyph unicode="k" horiz-adv-x="862" d="M72 0v1450l129 43v-940l381 516h168l-277 -358l379 -711h-158l-303 602l-190 -244v-358h-129z" />
<glyph unicode="l" horiz-adv-x="274" d="M72 0v1450l129 43v-1493h-129z" />
<glyph unicode="m" horiz-adv-x="1546" d="M72 0v1069h127v-133q101 162 295 162q222 0 299 -226q31 94 118 160t203 66q171 0 266 -105.5t95 -320.5v-672h-129v657q0 167 -57.5 240.5t-186.5 73.5q-105 0 -171.5 -74t-92.5 -199v-698h-129v657q0 167 -56.5 240.5t-185.5 73.5q-91 0 -153 -57t-113 -179v-735h-129z " />
<glyph unicode="n" horiz-adv-x="950" d="M72 0v1069h127v-133q53 83 135.5 122.5t179.5 39.5q163 0 264 -108.5t101 -319.5v-670h-131v657q0 314 -263 314q-182 0 -284 -236v-735h-129z" />
<glyph unicode="o" horiz-adv-x="1005" d="M49 532q0 272 124.5 419t328.5 147q202 0 326 -147t124 -419q0 -269 -124.5 -416t-325.5 -147q-204 0 -328.5 146.5t-124.5 416.5zM178 532q0 -213 86 -325.5t238 -112.5q151 0 237 112.5t86 325.5q0 217 -85.5 328t-237.5 111q-153 0 -238.5 -110.5t-85.5 -328.5z" />
<glyph unicode="p" horiz-adv-x="960" d="M70 -393v1462h123v-135q30 74 112 119t182 45q192 0 306 -146t114 -417q0 -273 -111 -419.5t-304 -146.5q-95 0 -170.5 41.5t-122.5 122.5v-483zM193 332q91 -236 278 -236q152 0 232.5 110t80.5 329q0 214 -80.5 327t-224.5 113q-109 0 -179.5 -69t-106.5 -179v-395z " />
<glyph unicode="q" horiz-adv-x="989" d="M49 535q0 269 120.5 416t317.5 147q101 0 186 -45t120 -119v135h122v-1419l-129 -43v526q-48 -80 -129.5 -122t-177.5 -42q-195 0 -312.5 147.5t-117.5 418.5zM176 535q0 -217 87 -328t241 -111q94 0 168 59.5t121 176.5v395q-35 108 -111 178t-186 70 q-147 0 -233.5 -112t-86.5 -328z" />
<glyph unicode="r" horiz-adv-x="587" d="M72 0v1069h127v-133q35 76 102.5 119t147.5 43q85 0 149 -45l-49 -117q-65 35 -119 35q-153 0 -229 -236v-735h-129z" />
<glyph unicode="s" horiz-adv-x="901" d="M20 109l68 102q58 -55 151 -84t195 -29q50 0 97 8.5t91.5 27.5t71.5 55.5t27 86.5q0 86 -80 150q-37 27 -113 53.5t-147 51.5t-140.5 60.5t-112 96t-42.5 143.5q0 70 31.5 124.5t83.5 86t114 47t129 15.5q102 0 189 -31.5t141 -91.5l-76 -94q-34 46 -108 69t-152 23 q-94 0 -158.5 -37.5t-64.5 -107.5q0 -44 27.5 -78.5t72.5 -56t102.5 -44t117 -40.5t117 -47t102.5 -63t72.5 -88.5t27.5 -123.5q0 -71 -24 -127.5t-64 -92t-94.5 -58.5t-111 -32.5t-118.5 -9.5q-128 0 -225.5 31.5t-196.5 104.5z" />
<glyph unicode="t" horiz-adv-x="522" d="M6 948v121h119v330l131 43v-373h203v-121h-203v-719q0 -42 38 -72t79 -30q42 0 83 11.5t60 33.5l-29 -141q-19 -13 -59 -23t-84 -10q-81 0 -150 60.5t-69 158.5v731h-119z" />
<glyph unicode="u" horiz-adv-x="929" d="M70 399v670h129v-635q0 -178 61.5 -257t192.5 -79q91 0 156.5 57.5t115.5 176.5v737h131v-1069h-127v133q-103 -164 -301 -164q-164 0 -261 108.5t-97 321.5z" />
<glyph unicode="v" horiz-adv-x="911" d="M8 1069h148l301 -887l301 887h141l-383 -1069h-123z" />
<glyph unicode="w" horiz-adv-x="1380" d="M8 1069h146l221 -872l250 872h133l248 -872l223 872h139l-301 -1069h-127l-254 827l-250 -827h-127z" />
<glyph unicode="x" horiz-adv-x="952" d="M51 0l350 561l-323 508h162l241 -395l234 395h162l-328 -514l352 -555h-166l-262 438l-262 -438h-160z" />
<glyph unicode="y" horiz-adv-x="911" d="M8 1069h148l301 -887l301 887h141l-524 -1462h-133l143 413z" />
<glyph unicode="z" horiz-adv-x="946" d="M63 0v113l666 827h-618v129h784v-117l-666 -827h666v-125h-832z" />
<glyph unicode="{" horiz-adv-x="606" d="M14 485v95q58 32 98 65.5t72.5 80.5t48 111.5t15.5 149.5q0 42 0.5 65t2.5 64.5t6 66.5t12.5 61t20.5 57.5t30 46.5t41.5 38.5t56 23t71.5 9.5t62 -2v-98q-36 0 -64.5 -5t-49 -18t-35 -26.5t-24 -39t-15 -46.5t-8 -58.5t-3 -65t-0.5 -75.5q0 -325 -229 -453 q121 -70 175 -181t54 -271q0 -49 0.5 -76.5t3 -65.5t8 -58.5t15 -46.5t24 -39.5t35 -26.5t49 -18t64.5 -5v-96q-46 -4 -62 -4q-39 0 -71.5 9.5t-56 23t-41.5 38.5t-30 47t-20.5 58t-12.5 61t-6 67t-2.5 65t-0.5 65q0 160 -57.5 251t-176.5 156z" />
<glyph unicode="|" horiz-adv-x="245" d="M66 -354v1771h104v-1771h-104z" />
<glyph unicode="}" horiz-adv-x="606" d="M49 -256q36 0 64.5 5t49 18t35 26.5t24 39.5t15 46.5t8 58.5t3 65.5t0.5 76.5q0 162 53 272t178 180q-231 130 -231 453q0 48 -0.5 75.5t-3 65t-8 58.5t-15 46.5t-24 39t-35 26.5t-49 18t-64.5 5v98q23 2 64 2q39 0 71.5 -9.5t56 -23t41.5 -38.5t30 -46.5t20.5 -57.5 t12.5 -61t6 -66.5t2.5 -64.5t0.5 -65q0 -85 15.5 -149.5t48 -111.5t72.5 -80.5t98 -65.5v-95q-119 -65 -176.5 -156t-57.5 -251q0 -42 -0.5 -65t-2.5 -65t-6 -67t-12.5 -61t-20.5 -58t-30 -47t-41.5 -38.5t-56 -23t-71.5 -9.5q-18 0 -64 4v96z" />
<glyph unicode="~" horiz-adv-x="1032" d="M57 690q42 71 108.5 108.5t143.5 37.5q63 0 123 -26t99 -57t88.5 -57t93.5 -26q105 0 174 112l84 -61q-42 -73 -112 -114.5t-146 -41.5q-57 0 -114.5 26.5t-97.5 57.5t-92.5 57.5t-101.5 26.5q-104 0 -168 -104z" />
<glyph unicode="&#xa1;" horiz-adv-x="303" d="M66 1333q0 35 26 58.5t62 23.5q35 0 58.5 -23.5t23.5 -58.5q0 -36 -23.5 -61t-58.5 -25t-61.5 25.5t-26.5 60.5zM94 -33v1073h123v-1073h-123z" />
<glyph unicode="&#xa2;" horiz-adv-x="1087" d="M133 711q0 250 109.5 394t292.5 165v147h118v-147q95 -14 175.5 -68t123.5 -139l-90 -76q-95 170 -270 170q-159 0 -251.5 -112.5t-92.5 -333.5q0 -218 93 -334.5t251 -116.5q153 0 260 150l88 -80q-116 -152 -287 -176v-154h-118v150q-183 21 -292.5 166.5t-109.5 394.5 z" />
<glyph unicode="&#xa3;" horiz-adv-x="1071" d="M49 0v119q64 26 112.5 87t69.5 126t21 123v254h-100v114h100v170q0 428 395 428q173 0 279 -75l-66 -105q-36 28 -101.5 47t-121.5 19q-266 0 -266 -314v-170h395v-114h-395v-267q0 -84 -35.5 -179t-102.5 -148h785v-115h-969z" />
<glyph unicode="&#xa5;" horiz-adv-x="1173" d="M41 1417h152l389 -631l391 631h147l-458 -712h362v-109h-385v-190h385v-111h-385v-295h-117v295h-383v111h383v190h-383v109h361z" />
<glyph unicode="&#xa6;" horiz-adv-x="299" d="M96 250h105v-604h-105v604zM96 825v592h105v-592h-105z" />
<glyph unicode="&#xa7;" horiz-adv-x="985" d="M104 -18l78 90q57 -57 149.5 -87t190.5 -30q53 0 101 9t92.5 28t71 56.5t26.5 88.5q0 61 -32 110t-91 75q-34 15 -96.5 36.5t-112.5 38.5t-108.5 46t-98 61.5t-66 82.5t-26.5 111q0 88 53 147t144 87q-93 43 -145 101t-52 153q0 82 56 143.5t139.5 90t177.5 28.5 q110 0 218 -37t153 -102l-90 -74q-34 41 -121.5 67.5t-163.5 26.5q-60 0 -115.5 -15.5t-95 -50.5t-39.5 -81q0 -57 80 -115q40 -29 104.5 -56t123.5 -45t122 -47t109.5 -61.5t76 -88.5t29.5 -130q0 -169 -145 -250q145 -81 145 -237q0 -68 -24 -122t-64 -89.5t-94.5 -59 t-112 -33.5t-119.5 -10q-127 0 -227 32.5t-201 111.5zM301 698q0 -36 20.5 -67t50 -52t75 -42t83 -33t88 -28.5t76.5 -26.5q127 53 127 174q0 44 -16 80t-32 56t-60.5 42.5t-62 29t-76.5 25.5q-11 4 -17 6q-91 0 -173.5 -48t-82.5 -116z" />
<glyph unicode="&#xa8;" horiz-adv-x="749" d="M98 1366q0 37 25 60.5t63 23.5q37 0 61.5 -23.5t24.5 -60.5q0 -35 -24.5 -58.5t-61.5 -23.5q-38 0 -63 23.5t-25 58.5zM479 1366q0 37 22.5 60.5t57.5 23.5q40 0 63 -23t23 -61q0 -36 -23 -59t-63 -23q-35 0 -57.5 23.5t-22.5 58.5z" />
<glyph unicode="&#xa9;" horiz-adv-x="1589" d="M55 709q0 150 58.5 287t158 236t236.5 157.5t287 58.5t287 -58.5t236 -157.5t157.5 -236t58.5 -287t-58.5 -287t-157.5 -236.5t-236 -158t-287 -58.5t-287 58.5t-236.5 158t-158 236.5t-58.5 287zM164 709q0 -172 85.5 -317.5t230.5 -229.5t315 -84q172 0 317 84 t229 229.5t84 317.5q0 127 -49.5 243.5t-133.5 201t-201 135t-246 50.5q-169 0 -314.5 -85t-231 -230.5t-85.5 -314.5zM414 705q0 201 104 309t273 108q97 0 178.5 -41t122.5 -118l-80 -56q-80 127 -221 127q-129 0 -205 -84t-76 -245t76 -245.5t205 -84.5q131 0 215 108 l73 -59q-51 -64 -126.5 -99.5t-161.5 -35.5q-168 0 -272.5 109t-104.5 307z" />
<glyph unicode="&#xaa;" horiz-adv-x="681" d="M98 993q0 108 62.5 161.5t177.5 53.5q86 0 143 -51q0 89 -28.5 137.5t-106.5 48.5q-76 0 -147 -57l-52 92q28 28 83.5 49t119.5 21q109 0 169.5 -60t60.5 -180v-413h-101v49q-60 -66 -155 -66q-89 0 -157.5 58.5t-68.5 156.5zM201 993q0 -53 36 -82.5t97 -29.5 q98 0 145 84v79q-51 64 -143 64q-135 0 -135 -115z" />
<glyph unicode="&#xab;" horiz-adv-x="806" d="M109 483v103l284 237v-123l-213 -165l213 -170v-121zM412 483v103l282 237v-123l-211 -165l211 -170v-121z" />
<glyph unicode="&#xad;" horiz-adv-x="737" d="M66 475v117h600v-117h-600z" />
<glyph unicode="&#xae;" horiz-adv-x="1216" d="M12 854q0 161 79 298t215.5 216.5t297.5 79.5q162 0 299 -79.5t216 -216.5t79 -298t-79 -297.5t-216 -215.5t-299 -79q-161 0 -297.5 79t-215.5 215.5t-79 297.5zM119 854q0 -202 142 -343.5t343 -141.5q133 0 245.5 64.5t178.5 176t66 244.5t-65.5 245.5t-178.5 178 t-246 65.5q-132 0 -243.5 -65.5t-176.5 -178t-65 -245.5zM428 567v596h199q77 0 125.5 -49t48.5 -133q0 -60 -29 -104.5t-82 -57.5l109 -252h-101l-96 232h-88v-232h-86zM514 895h115q80 0 80 86q0 90 -80 90h-115v-176z" />
<glyph unicode="&#xaf;" horiz-adv-x="577" d="M47 1319v98h506v-98h-506z" />
<glyph unicode="&#xb0;" horiz-adv-x="888" d="M145 1133q0 124 85.5 211.5t209.5 87.5q123 0 211 -88t88 -211t-88 -210t-211 -87q-124 0 -209.5 86.5t-85.5 210.5zM252 1130q0 -80 54.5 -135t133.5 -55q80 0 136.5 55.5t56.5 134.5q0 80 -56.5 136.5t-136.5 56.5q-79 0 -133.5 -56.5t-54.5 -136.5z" />
<glyph unicode="&#xb1;" horiz-adv-x="937" d="M106 166v102h717v-102h-717zM106 645v103h320v303h102v-303h295v-103h-295v-303h-102v303h-320z" />
<glyph unicode="&#xb2;" horiz-adv-x="598" d="M10 584q13 135 56.5 227.5t138.5 163.5q21 16 61 38.5t73 41.5t65.5 43.5t51.5 54.5t19 64q0 57 -48 85.5t-120 28.5q-124 0 -192 -82l-78 72q45 57 117.5 86t150.5 29q115 0 196 -57.5t81 -166.5q0 -48 -18 -88.5t-52.5 -72t-66.5 -52.5t-78 -45q-104 -57 -159 -116.5 t-77 -151.5h457v-102h-578z" />
<glyph unicode="&#xb3;" horiz-adv-x="788" d="M102 676l66 78q36 -36 94.5 -55t112.5 -19q91 0 150 44t59 107q0 64 -43 110t-121 46h-76v100h76q44 0 75 39t31 91q0 51 -42.5 78.5t-104.5 27.5q-43 0 -84.5 -22t-65.5 -62l-75 72q34 55 95 84.5t130 29.5q106 0 178 -53t72 -153q0 -111 -90 -170q147 -47 147 -215 q0 -114 -92 -186.5t-221 -72.5q-71 0 -147 26.5t-124 74.5z" />
<glyph unicode="&#xb4;" horiz-adv-x="530" d="M2 1233l307 287l70 -84l-336 -256z" />
<glyph unicode="&#xb5;" horiz-adv-x="1105" d="M96 -346v1415h129v-739q51 -119 117 -177.5t158 -58.5q130 0 192 75t62 239v661h129v-854q0 -84 80 -84q52 0 92 31v-129q-37 -37 -119 -37q-120 0 -152 106q-86 -133 -268 -133q-192 0 -291 158v-473h-129z" />
<glyph unicode="&#xb6;" horiz-adv-x="1126" d="M68 1012q0 197 118.5 301t321.5 104h526v-1417h-104v604h-185v-604h-104v604h-133q-203 0 -321.5 105t-118.5 303zM745 707h185v606h-185v-606z" />
<glyph unicode="&#xb7;" horiz-adv-x="253" d="M47 680q0 35 23.5 59.5t58.5 24.5t59.5 -24.5t24.5 -59.5q0 -33 -24.5 -56.5t-59.5 -23.5t-58.5 23.5t-23.5 56.5z" />
<glyph unicode="&#xb8;" horiz-adv-x="407" d="M90 -360l121 319h131l-184 -352z" />
<glyph unicode="&#xb9;" horiz-adv-x="350" d="M92 1247v90q91 12 103 80h90v-833h-105v663h-88z" />
<glyph unicode="&#xba;" horiz-adv-x="587" d="M12 1112q0 163 73.5 249.5t199.5 86.5q122 0 195 -86.5t73 -249.5t-73 -248.5t-195 -85.5q-126 0 -199.5 85.5t-73.5 248.5zM117 1112q0 -115 44 -174t124 -59t124 59t44 174q0 116 -44 175t-124 59t-124 -59t-44 -175z" />
<glyph unicode="&#xbb;" horiz-adv-x="774" d="M94 244v121l211 170l-211 165v123l283 -237v-103zM395 244v121l211 170l-211 165v123l283 -237v-103z" />
<glyph unicode="&#xbc;" horiz-adv-x="1484" d="M63 1247v90q91 12 103 80h90v-833h-104v663h-89zM111 0l960 1417h129l-962 -1417h-127zM754 152v81l473 598h76v-581h88v-98h-88v-152h-101v152h-448zM899 250h303v385z" />
<glyph unicode="&#xbd;" horiz-adv-x="1544" d="M61 1247v90q91 12 103 80h92v-833h-104v663h-91zM111 0l960 1417h129l-962 -1417h-127zM901 0q14 148 64.5 247t162.5 169q19 12 57.5 32t65.5 36t56 38.5t44 49.5t15 59q0 57 -48 85.5t-120 28.5q-124 0 -194 -81l-76 71q45 57 117.5 86t150.5 29q115 0 196 -57t81 -166 q0 -40 -13.5 -74.5t-32.5 -59t-51.5 -49.5t-57 -39.5t-63.5 -35.5q-100 -54 -154.5 -114t-76.5 -153h455v-102h-578z" />
<glyph unicode="&#xbe;" horiz-adv-x="1488" d="M20 676l66 78q36 -36 94.5 -55t112.5 -19q91 0 150 44t59 107q0 66 -41.5 111t-122.5 45h-76v100h76q44 0 76 39t32 91q0 51 -42.5 78.5t-106.5 27.5q-41 0 -83.5 -22.5t-66.5 -61.5l-75 72q34 55 95 84.5t130 29.5q106 0 178 -53t72 -153q0 -111 -90 -170 q147 -47 147 -215q0 -114 -92 -186.5t-221 -72.5q-71 0 -147 26.5t-124 74.5zM266 0l961 1417h129l-963 -1417h-127zM829 152v81l474 598h77v-581h86v-98h-86v-152h-102v152h-449zM975 250h303v385z" />
<glyph unicode="&#xbf;" horiz-adv-x="948" d="M76 309q0 43 7 81.5t22.5 74.5t30 63t41 60t42.5 51t48 52t44 48q58 64 85.5 121.5t31.5 138.5h125q-6 -160 -102 -288q-25 -33 -77.5 -89.5t-84 -93.5t-58 -96t-26.5 -121q0 -109 80 -161t202 -52q181 0 306 101l77 -105q-158 -125 -376 -125q-84 0 -158 20.5t-133 60.5 t-93 106.5t-34 152.5zM414 1350q0 35 25 58.5t61 23.5q35 0 59.5 -23.5t24.5 -58.5t-24.5 -60.5t-59.5 -25.5t-60.5 25.5t-25.5 60.5z" />
<glyph unicode="&#xc0;" d="M10 0l508 1417h125l508 -1417h-152l-100 293h-643l-98 -293h-148zM295 416h565l-282 825zM391 1784l70 84l307 -287l-41 -53z" />
<glyph unicode="&#xc1;" d="M10 0l508 1417h125l508 -1417h-152l-100 293h-643l-98 -293h-148zM295 416h565l-282 825zM391 1581l307 287l70 -84l-336 -256z" />
<glyph unicode="&#xc2;" d="M10 0l508 1417h125l508 -1417h-152l-100 293h-643l-98 -293h-148zM295 416h565l-282 825zM305 1581l277 283l274 -283l-43 -53l-231 194l-232 -194z" />
<glyph unicode="&#xc3;" d="M10 0l508 1417h125l508 -1417h-152l-100 293h-643l-98 -293h-148zM178 1683q29 85 91.5 138t129.5 53q50 0 94 -18.5t75.5 -44.5t60 -52t59 -44.5t60.5 -18.5q95 0 159 159l76 -65q-28 -90 -98.5 -143.5t-143.5 -53.5q-41 0 -80 18t-68.5 43.5t-58 51t-60.5 43.5t-64 18 q-95 0 -156 -149zM295 416h565l-282 825z" />
<glyph unicode="&#xc4;" d="M10 0l508 1417h125l508 -1417h-152l-100 293h-643l-98 -293h-148zM295 416h565l-282 825zM307 1714q0 37 25 60.5t63 23.5q37 0 61.5 -23.5t24.5 -60.5q0 -35 -24.5 -58.5t-61.5 -23.5q-38 0 -63 23.5t-25 58.5zM688 1714q0 37 22.5 60.5t57.5 23.5q40 0 63 -23t23 -61 q0 -36 -23 -59t-63 -23q-35 0 -57.5 23.5t-22.5 58.5z" />
<glyph unicode="&#xc5;" d="M10 0l508 1417h125l508 -1417h-152l-100 293h-643l-98 -293h-148zM295 416h565l-282 825zM412 1686q0 71 49 120t119 49q68 0 118 -50t50 -119q0 -67 -50 -116.5t-118 -49.5q-69 0 -118.5 49t-49.5 117zM485 1686q0 -40 28 -66.5t67 -26.5t65.5 26t26.5 67q0 37 -27 65.5 t-65 28.5t-66.5 -28.5t-28.5 -65.5z" />
<glyph unicode="&#xc6;" horiz-adv-x="1695" d="M16 0l820 1417h745v-131h-553v-495h320v-129h-320v-537h571v-125h-702v389h-508l-223 -389h-150zM457 518h440v754z" />
<glyph unicode="&#xc7;" horiz-adv-x="1153" d="M49 707q0 178 46 320t127.5 233t191 139.5t239.5 48.5q144 0 261 -57t194 -166l-96 -74q-127 166 -361 166q-219 0 -345 -156t-126 -454q0 -295 126.5 -453t344.5 -158q219 0 348 152l99 -72q-162 -207 -445 -207q-130 0 -239.5 48t-191 138.5t-127.5 232t-46 319.5z M450 -360l121 319h131l-184 -352z" />
<glyph unicode="&#xc8;" horiz-adv-x="897" d="M72 0v1417h743v-131h-614v-495h381v-129h-381v-537h630v-125h-759zM260 1784l70 84l307 -287l-41 -53z" />
<glyph unicode="&#xc9;" horiz-adv-x="897" d="M72 0v1417h743v-131h-614v-495h381v-129h-381v-537h630v-125h-759zM260 1581l307 287l70 -84l-336 -256z" />
<glyph unicode="&#xca;" horiz-adv-x="897" d="M72 0v1417h743v-131h-614v-495h381v-129h-381v-537h630v-125h-759zM172 1581l277 283l274 -283l-43 -53l-231 194l-232 -194z" />
<glyph unicode="&#xcb;" horiz-adv-x="897" d="M72 0v1417h743v-131h-614v-495h381v-129h-381v-537h630v-125h-759zM174 1714q0 37 25 60.5t63 23.5q37 0 61.5 -23.5t24.5 -60.5q0 -35 -24.5 -58.5t-61.5 -23.5q-38 0 -63 23.5t-25 58.5zM555 1714q0 37 22.5 60.5t57.5 23.5q40 0 63 -23t23 -61q0 -36 -23 -59t-63 -23 q-35 0 -57.5 23.5t-22.5 58.5z" />
<glyph unicode="&#xcc;" horiz-adv-x="274" d="M-49 1784l70 84l307 -287l-41 -53zM72 0v1417h129v-1417h-129z" />
<glyph unicode="&#xcd;" horiz-adv-x="274" d="M-49 1581l307 287l70 -84l-336 -256zM72 0v1417h129v-1417h-129z" />
<glyph unicode="&#xce;" horiz-adv-x="274" d="M-136 1581l277 283l274 -283l-43 -53l-231 194l-232 -194zM72 0v1417h129v-1417h-129z" />
<glyph unicode="&#xcf;" horiz-adv-x="274" d="M-133 1714q0 37 25 60.5t63 23.5q37 0 61.5 -23.5t24.5 -60.5q0 -35 -24.5 -58.5t-61.5 -23.5q-38 0 -63 23.5t-25 58.5zM72 0v1417h129v-1417h-129zM248 1714q0 37 22.5 60.5t57.5 23.5q40 0 63 -23t23 -61q0 -36 -23 -59t-63 -23q-35 0 -57.5 23.5t-22.5 58.5z" />
<glyph unicode="&#xd0;" horiz-adv-x="1327" d="M59 631v114h80v672h361q149 0 283 -54.5t231 -148t154 -224.5t57 -277q0 -196 -96.5 -360t-263 -258.5t-365.5 -94.5h-361v631h-80zM272 127h230q121 0 230 44.5t187.5 121t124.5 185t46 231.5q0 171 -78.5 303.5t-212 203t-297.5 70.5h-230v-541h367v-114h-367v-504z " />
<glyph unicode="&#xd1;" horiz-adv-x="1167" d="M72 0v1417h159l732 -1216v1216h131v-1417h-160l-733 1217v-1217h-129zM180 1683q29 85 92 138t130 53q50 0 94 -18.5t75 -44.5t59.5 -52t59 -44.5t60.5 -18.5q96 0 160 159l75 -65q-28 -90 -98 -143.5t-143 -53.5q-41 0 -80 18t-69 43.5t-58 51t-60.5 43.5t-64.5 18 q-95 0 -156 -149z" />
<glyph unicode="&#xd2;" horiz-adv-x="1290" d="M49 707q0 354 163.5 547.5t430.5 193.5t430.5 -193.5t163.5 -547.5q0 -178 -44 -319t-123.5 -232.5t-187.5 -139t-239 -47.5t-239 47.5t-187.5 139t-123.5 232.5t-44 319zM180 707q0 -297 122.5 -454t340.5 -157t340.5 157t122.5 454q0 303 -121 456.5t-342 153.5 t-342 -153.5t-121 -456.5zM456 1784l70 84l307 -287l-41 -53z" />
<glyph unicode="&#xd3;" horiz-adv-x="1290" d="M49 707q0 354 163.5 547.5t430.5 193.5t430.5 -193.5t163.5 -547.5q0 -178 -44 -319t-123.5 -232.5t-187.5 -139t-239 -47.5t-239 47.5t-187.5 139t-123.5 232.5t-44 319zM180 707q0 -297 122.5 -454t340.5 -157t340.5 157t122.5 454q0 303 -121 456.5t-342 153.5 t-342 -153.5t-121 -456.5zM457 1581l307 287l70 -84l-336 -256z" />
<glyph unicode="&#xd4;" horiz-adv-x="1290" d="M49 707q0 354 163.5 547.5t430.5 193.5t430.5 -193.5t163.5 -547.5q0 -178 -44 -319t-123.5 -232.5t-187.5 -139t-239 -47.5t-239 47.5t-187.5 139t-123.5 232.5t-44 319zM180 707q0 -297 122.5 -454t340.5 -157t340.5 157t122.5 454q0 303 -121 456.5t-342 153.5 t-342 -153.5t-121 -456.5zM368 1581l277 283l274 -283l-43 -53l-231 194l-232 -194z" />
<glyph unicode="&#xd5;" horiz-adv-x="1290" d="M49 707q0 354 163.5 547.5t430.5 193.5t430.5 -193.5t163.5 -547.5q0 -178 -44 -319t-123.5 -232.5t-187.5 -139t-239 -47.5t-239 47.5t-187.5 139t-123.5 232.5t-44 319zM180 707q0 -297 122.5 -454t340.5 -157t340.5 157t122.5 454q0 303 -121 456.5t-342 153.5 t-342 -153.5t-121 -456.5zM242 1683q29 85 91.5 138t129.5 53q50 0 94 -18.5t75 -44.5t59.5 -52t59 -44.5t60.5 -18.5q96 0 160 159l76 -65q-28 -90 -98.5 -143.5t-143.5 -53.5q-41 0 -80 18t-69 43.5t-58 51t-60.5 43.5t-64.5 18q-95 0 -156 -149z" />
<glyph unicode="&#xd6;" horiz-adv-x="1290" d="M49 707q0 354 163.5 547.5t430.5 193.5t430.5 -193.5t163.5 -547.5q0 -178 -44 -319t-123.5 -232.5t-187.5 -139t-239 -47.5t-239 47.5t-187.5 139t-123.5 232.5t-44 319zM180 707q0 -297 122.5 -454t340.5 -157t340.5 157t122.5 454q0 303 -121 456.5t-342 153.5 t-342 -153.5t-121 -456.5zM370 1714q0 37 25 60.5t63 23.5q37 0 61.5 -23.5t24.5 -60.5q0 -35 -24.5 -58.5t-61.5 -23.5q-38 0 -63 23.5t-25 58.5zM751 1714q0 37 22.5 60.5t57.5 23.5q40 0 63 -23t23 -61q0 -36 -23 -59t-63 -23q-35 0 -57.5 23.5t-22.5 58.5z" />
<glyph unicode="&#xd7;" horiz-adv-x="753" d="M68 924l73 73l226 -227l225 227l74 -73l-228 -226l224 -223l-72 -74l-223 226l-224 -226l-71 74l223 223z" />
<glyph unicode="&#xd8;" horiz-adv-x="1392" d="M102 707q0 354 163.5 547.5t430.5 193.5q115 0 205 -37l33 86h113l-50 -131q140 -89 216.5 -254t76.5 -405q0 -178 -44 -319t-123.5 -232.5t-187.5 -139t-239 -47.5q-119 0 -204 33l-33 -92h-113l51 137q-139 84 -217 251.5t-78 408.5zM229 707q0 -397 213 -539l416 1124 q-89 29 -162 29q-220 0 -343.5 -157t-123.5 -457zM535 121q89 -29 161 -29q218 0 342.5 158t124.5 457q0 395 -213 536z" />
<glyph unicode="&#xd9;" horiz-adv-x="1138" d="M70 502v915h129v-915q0 -160 107.5 -274.5t260.5 -114.5q151 0 260 114.5t109 274.5v915h129v-915q0 -145 -68 -264t-182 -185.5t-248 -66.5t-248 66.5t-181.5 185.5t-67.5 264zM381 1784l70 84l307 -287l-41 -53z" />
<glyph unicode="&#xda;" horiz-adv-x="1138" d="M70 502v915h129v-915q0 -160 107.5 -274.5t260.5 -114.5q151 0 260 114.5t109 274.5v915h129v-915q0 -145 -68 -264t-182 -185.5t-248 -66.5t-248 66.5t-181.5 185.5t-67.5 264zM381 1581l307 287l70 -84l-336 -256z" />
<glyph unicode="&#xdb;" horiz-adv-x="1138" d="M70 502v915h129v-915q0 -160 107.5 -274.5t260.5 -114.5q151 0 260 114.5t109 274.5v915h129v-915q0 -145 -68 -264t-182 -185.5t-248 -66.5t-248 66.5t-181.5 185.5t-67.5 264zM292 1581l277 283l274 -283l-43 -53l-231 194l-232 -194z" />
<glyph unicode="&#xdc;" horiz-adv-x="1138" d="M70 502v915h129v-915q0 -160 107.5 -274.5t260.5 -114.5q151 0 260 114.5t109 274.5v915h129v-915q0 -145 -68 -264t-182 -185.5t-248 -66.5t-248 66.5t-181.5 185.5t-67.5 264zM295 1714q0 37 25 60.5t63 23.5q37 0 61.5 -23.5t24.5 -60.5q0 -35 -24.5 -58.5 t-61.5 -23.5q-38 0 -63 23.5t-25 58.5zM676 1714q0 37 22.5 60.5t57.5 23.5q40 0 63 -23t23 -61q0 -36 -23 -59t-63 -23q-35 0 -57.5 23.5t-22.5 58.5z" />
<glyph unicode="&#xdd;" horiz-adv-x="1105" d="M8 1417h150l393 -827l395 827h148l-478 -987v-430h-131v432zM364 1581l307 287l70 -84l-336 -256z" />
<glyph unicode="&#xde;" horiz-adv-x="1099" d="M143 0v1417h131v-303h373q208 0 327.5 -104.5t119.5 -304.5q0 -199 -120.5 -306.5t-326.5 -107.5h-373v-291h-131zM274 418h373q143 0 229.5 72.5t86.5 214.5q0 141 -86 210.5t-230 69.5h-373v-567z" />
<glyph unicode="&#xdf;" horiz-adv-x="1085" d="M143 0v1065q0 208 101 318t266 110q92 0 172 -38.5t133 -118t53 -185.5q0 -187 -170 -305q134 -38 209.5 -142.5t75.5 -246.5q0 -87 -22.5 -160.5t-62 -125.5t-95 -90t-119.5 -59t-137 -28l-8 131q141 13 232 98t91 232q0 270 -311 319v109q197 80 197 268 q0 98 -70 156.5t-168 58.5q-109 0 -173.5 -79.5t-64.5 -229.5v-1057h-129z" />
<glyph unicode="&#xe0;" horiz-adv-x="921" d="M45 324q0 171 106 260.5t300 89.5q177 0 276 -99q0 74 -4.5 126.5t-21 107.5t-45 88t-79.5 54.5t-122 21.5q-76 0 -145 -25.5t-109 -58.5l-62 110q38 40 128 69.5t202 29.5q187 0 284 -104.5t97 -307.5v-686h-123v131q-42 -76 -122 -118t-185 -42q-93 0 -177 39 t-141 121.5t-57 192.5zM168 324q0 -109 74.5 -172.5t193.5 -63.5q99 0 179.5 61.5t111.5 137.5v139q-39 61 -114.5 97t-172.5 36q-131 0 -201.5 -59.5t-70.5 -175.5zM272 1436l70 84l307 -287l-41 -53z" />
<glyph unicode="&#xe1;" horiz-adv-x="921" d="M45 324q0 171 106 260.5t300 89.5q177 0 276 -99q0 74 -4.5 126.5t-21 107.5t-45 88t-79.5 54.5t-122 21.5q-76 0 -145 -25.5t-109 -58.5l-62 110q38 40 128 69.5t202 29.5q187 0 284 -104.5t97 -307.5v-686h-123v131q-42 -76 -122 -118t-185 -42q-93 0 -177 39 t-141 121.5t-57 192.5zM168 324q0 -109 74.5 -172.5t193.5 -63.5q99 0 179.5 61.5t111.5 137.5v139q-39 61 -114.5 97t-172.5 36q-131 0 -201.5 -59.5t-70.5 -175.5zM272 1233l308 287l69 -84l-336 -256z" />
<glyph unicode="&#xe2;" horiz-adv-x="921" d="M45 324q0 171 106 260.5t300 89.5q177 0 276 -99q0 74 -4.5 126.5t-21 107.5t-45 88t-79.5 54.5t-122 21.5q-76 0 -145 -25.5t-109 -58.5l-62 110q38 40 128 69.5t202 29.5q187 0 284 -104.5t97 -307.5v-686h-123v131q-42 -76 -122 -118t-185 -42q-93 0 -177 39 t-141 121.5t-57 192.5zM168 324q0 -109 74.5 -172.5t193.5 -63.5q99 0 179.5 61.5t111.5 137.5v139q-39 61 -114.5 97t-172.5 36q-131 0 -201.5 -59.5t-70.5 -175.5zM184 1233l277 283l274 -283l-43 -53l-231 194l-232 -194z" />
<glyph unicode="&#xe3;" horiz-adv-x="921" d="M45 324q0 171 106 260.5t300 89.5q177 0 276 -99q0 74 -4.5 126.5t-21 107.5t-45 88t-79.5 54.5t-122 21.5q-76 0 -145 -25.5t-109 -58.5l-62 110q38 40 128 69.5t202 29.5q187 0 284 -104.5t97 -307.5v-686h-123v131q-42 -76 -122 -118t-185 -42q-93 0 -177 39 t-141 121.5t-57 192.5zM61 1335q29 85 92 138t130 53q50 0 94 -18.5t75 -44.5t59.5 -52t59 -44.5t60.5 -18.5q96 0 160 159l75 -65q-28 -90 -98 -143.5t-143 -53.5q-41 0 -80 18t-69 43.5t-58 51t-60.5 43.5t-64.5 18q-95 0 -156 -149zM168 324q0 -109 74.5 -172.5 t193.5 -63.5q99 0 179.5 61.5t111.5 137.5v139q-39 61 -114.5 97t-172.5 36q-131 0 -201.5 -59.5t-70.5 -175.5z" />
<glyph unicode="&#xe4;" horiz-adv-x="921" d="M45 324q0 171 106 260.5t300 89.5q177 0 276 -99q0 74 -4.5 126.5t-21 107.5t-45 88t-79.5 54.5t-122 21.5q-76 0 -145 -25.5t-109 -58.5l-62 110q38 40 128 69.5t202 29.5q187 0 284 -104.5t97 -307.5v-686h-123v131q-42 -76 -122 -118t-185 -42q-93 0 -177 39 t-141 121.5t-57 192.5zM168 324q0 -109 74.5 -172.5t193.5 -63.5q99 0 179.5 61.5t111.5 137.5v139q-39 61 -114.5 97t-172.5 36q-131 0 -201.5 -59.5t-70.5 -175.5zM186 1366q0 37 25 60.5t63 23.5q37 0 61.5 -23.5t24.5 -60.5q0 -35 -24.5 -58.5t-61.5 -23.5 q-38 0 -63 23.5t-25 58.5zM567 1366q0 37 22.5 60.5t57.5 23.5q40 0 63 -23t23 -61q0 -36 -23 -59t-63 -23q-35 0 -57.5 23.5t-22.5 58.5z" />
<glyph unicode="&#xe5;" horiz-adv-x="921" d="M45 324q0 171 106 260.5t300 89.5q177 0 276 -99q0 74 -4.5 126.5t-21 107.5t-45 88t-79.5 54.5t-122 21.5q-76 0 -145 -25.5t-109 -58.5l-62 110q38 40 128 69.5t202 29.5q187 0 284 -104.5t97 -307.5v-686h-123v131q-42 -76 -122 -118t-185 -42q-93 0 -177 39 t-141 121.5t-57 192.5zM168 324q0 -109 74.5 -172.5t193.5 -63.5q99 0 179.5 61.5t111.5 137.5v139q-39 61 -114.5 97t-172.5 36q-131 0 -201.5 -59.5t-70.5 -175.5zM293 1337q0 71 49.5 120.5t118.5 49.5q68 0 118 -50.5t50 -119.5q0 -67 -50 -116.5t-118 -49.5 q-69 0 -118.5 49t-49.5 117zM367 1337q0 -40 27.5 -66t66.5 -26t65.5 25.5t26.5 66.5q0 37 -27 66t-65 29t-66 -29t-28 -66z" />
<glyph unicode="&#xe6;" horiz-adv-x="1781" d="M117 326q0 171 106 259.5t301 88.5q165 0 275 -92v137q0 114 -72.5 185t-194.5 71q-79 0 -148 -25t-110 -59l-63 110q41 39 130.5 68t199.5 29q262 0 342 -203q55 99 146 151t208 52q198 0 320 -148t122 -405q0 -26 -6 -53h-751q7 -200 95.5 -301t239.5 -101 q156 0 256 115l86 -76q-57 -75 -149.5 -117.5t-196.5 -42.5q-62 0 -115 11t-106 37t-98 75.5t-78 120.5q-65 -135 -154 -189.5t-210 -54.5q-69 0 -135 24t-120 68t-87 113t-33 152zM240 326q0 -109 74.5 -173.5t193.5 -64.5q103 0 181.5 70.5t111.5 163.5v106 q-42 62 -117 97.5t-172 35.5q-132 0 -202 -59.5t-70 -175.5zM924 606h626q-27 369 -313 369t-313 -369z" />
<glyph unicode="&#xe7;" horiz-adv-x="913" d="M49 532q0 272 128.5 419t338.5 147q119 0 213 -53t141 -150l-98 -86q-82 162 -260 162q-154 0 -244 -112t-90 -327q0 -212 90.5 -325t243.5 -113q76 0 141 37.5t109 101.5l96 -83q-60 -82 -151 -131.5t-199 -49.5q-204 0 -331.5 147.5t-127.5 415.5zM330 -360l121 319 h131l-184 -352z" />
<glyph unicode="&#xe8;" horiz-adv-x="991" d="M49 532q0 273 121.5 419.5t323.5 146.5q199 0 320.5 -147t121.5 -406q0 -32 -6 -53h-752q7 -195 95.5 -297.5t238.5 -102.5q79 0 146.5 29.5t111.5 85.5l86 -76q-56 -77 -149 -119.5t-199 -42.5q-204 0 -331.5 147.5t-127.5 415.5zM180 606h627q-13 183 -94.5 276 t-218.5 93q-139 0 -220 -93t-94 -276zM307 1436l70 84l307 -287l-41 -53z" />
<glyph unicode="&#xe9;" horiz-adv-x="991" d="M49 532q0 273 121.5 419.5t323.5 146.5q199 0 320.5 -147t121.5 -406q0 -32 -6 -53h-752q7 -195 95.5 -297.5t238.5 -102.5q79 0 146.5 29.5t111.5 85.5l86 -76q-56 -77 -149 -119.5t-199 -42.5q-204 0 -331.5 147.5t-127.5 415.5zM180 606h627q-13 183 -94.5 276 t-218.5 93q-139 0 -220 -93t-94 -276zM307 1233l307 287l70 -84l-336 -256z" />
<glyph unicode="&#xea;" horiz-adv-x="991" d="M49 532q0 273 121.5 419.5t323.5 146.5q199 0 320.5 -147t121.5 -406q0 -32 -6 -53h-752q7 -195 95.5 -297.5t238.5 -102.5q79 0 146.5 29.5t111.5 85.5l86 -76q-56 -77 -149 -119.5t-199 -42.5q-204 0 -331.5 147.5t-127.5 415.5zM180 606h627q-13 183 -94.5 276 t-218.5 93q-139 0 -220 -93t-94 -276zM219 1233l277 283l274 -283l-43 -53l-231 194l-232 -194z" />
<glyph unicode="&#xeb;" horiz-adv-x="991" d="M49 532q0 273 121.5 419.5t323.5 146.5q199 0 320.5 -147t121.5 -406q0 -32 -6 -53h-752q7 -195 95.5 -297.5t238.5 -102.5q79 0 146.5 29.5t111.5 85.5l86 -76q-56 -77 -149 -119.5t-199 -42.5q-204 0 -331.5 147.5t-127.5 415.5zM180 606h627q-13 183 -94.5 276 t-218.5 93q-139 0 -220 -93t-94 -276zM221 1366q0 37 25 60.5t63 23.5q37 0 61.5 -23.5t24.5 -60.5q0 -35 -24.5 -58.5t-61.5 -23.5q-38 0 -63 23.5t-25 58.5zM602 1366q0 37 22.5 60.5t57.5 23.5q40 0 63 -23t23 -61q0 -36 -23 -59t-63 -23q-35 0 -57.5 23.5t-22.5 58.5z " />
<glyph unicode="&#xec;" horiz-adv-x="415" d="M18 1436l70 84l307 -287l-41 -53zM143 0v1069h129v-1069h-129z" />
<glyph unicode="&#xed;" horiz-adv-x="415" d="M18 1233l308 287l69 -84l-336 -256zM143 0v1069h129v-1069h-129z" />
<glyph unicode="&#xee;" horiz-adv-x="415" d="M-66 1233l277 283l274 -283l-43 -53l-231 194l-232 -194zM143 0v1069h129v-1069h-129z" />
<glyph unicode="&#xef;" horiz-adv-x="415" d="M-63 1366q0 37 25 60.5t63 23.5q37 0 61.5 -23.5t24.5 -60.5q0 -35 -24.5 -58.5t-61.5 -23.5q-38 0 -63 23.5t-25 58.5zM143 0v1069h129v-1069h-129zM317 1366q0 37 22.5 60.5t57.5 23.5q40 0 63 -23t23 -61q0 -36 -23 -59t-63 -23q-35 0 -57.5 23.5t-22.5 58.5z" />
<glyph unicode="&#xf0;" horiz-adv-x="1236" d="M102 547q0 127 42 230t113 168.5t163 100.5t194 35q166 0 299 -86q-74 135 -224 233.5t-312 123.5l22 121q217 -33 385 -155t259.5 -309.5t91.5 -410.5q0 -96 -18 -185t-58 -170.5t-99 -142t-147 -96t-195 -35.5q-96 0 -180 31.5t-144.5 87t-104.5 128.5t-65.5 157.5 t-21.5 173.5zM225 557q0 -83 28 -164t78 -146.5t125 -106t162 -40.5q83 0 149.5 28.5t110.5 75.5t73.5 111.5t42 133t12.5 143.5q0 133 -29 219q-70 70 -154.5 108.5t-204.5 38.5q-57 0 -113 -16t-106.5 -49.5t-89 -80t-61.5 -112.5t-23 -143z" />
<glyph unicode="&#xf1;" horiz-adv-x="950" d="M71 1335q29 85 92 138t130 53q50 0 94 -18.5t75 -44.5t59.5 -52t59 -44.5t60.5 -18.5q96 0 160 159l75 -65q-28 -90 -98 -143.5t-143 -53.5q-41 0 -80 18t-69 43.5t-58 51t-60.5 43.5t-64.5 18q-95 0 -156 -149zM72 0v1069h127v-133q53 83 135.5 122.5t179.5 39.5 q163 0 264 -108.5t101 -319.5v-670h-131v657q0 314 -263 314q-182 0 -284 -236v-735h-129z" />
<glyph unicode="&#xf2;" horiz-adv-x="1005" d="M49 532q0 272 124.5 419t328.5 147q202 0 326 -147t124 -419q0 -269 -124.5 -416t-325.5 -147q-204 0 -328.5 146.5t-124.5 416.5zM178 532q0 -213 86 -325.5t238 -112.5q151 0 237 112.5t86 325.5q0 217 -85.5 328t-237.5 111q-153 0 -238.5 -110.5t-85.5 -328.5z M313 1436l70 84l307 -287l-41 -53z" />
<glyph unicode="&#xf3;" horiz-adv-x="1005" d="M49 532q0 272 124.5 419t328.5 147q202 0 326 -147t124 -419q0 -269 -124.5 -416t-325.5 -147q-204 0 -328.5 146.5t-124.5 416.5zM178 532q0 -213 86 -325.5t238 -112.5q151 0 237 112.5t86 325.5q0 217 -85.5 328t-237.5 111q-153 0 -238.5 -110.5t-85.5 -328.5z M313 1233l308 287l69 -84l-336 -256z" />
<glyph unicode="&#xf4;" horiz-adv-x="1005" d="M49 532q0 272 124.5 419t328.5 147q202 0 326 -147t124 -419q0 -269 -124.5 -416t-325.5 -147q-204 0 -328.5 146.5t-124.5 416.5zM178 532q0 -213 86 -325.5t238 -112.5q151 0 237 112.5t86 325.5q0 217 -85.5 328t-237.5 111q-153 0 -238.5 -110.5t-85.5 -328.5z M227 1233l277 283l274 -283l-43 -53l-231 194l-232 -194z" />
<glyph unicode="&#xf5;" horiz-adv-x="1005" d="M49 532q0 272 124.5 419t328.5 147q202 0 326 -147t124 -419q0 -269 -124.5 -416t-325.5 -147q-204 0 -328.5 146.5t-124.5 416.5zM100 1335q29 85 92 138t130 53q50 0 94 -18.5t75 -44.5t59.5 -52t59 -44.5t60.5 -18.5q95 0 159 159l76 -65q-28 -90 -98 -143.5 t-143 -53.5q-41 0 -80 18t-69 43.5t-58 51t-60.5 43.5t-64.5 18q-95 0 -156 -149zM178 532q0 -213 86 -325.5t238 -112.5q151 0 237 112.5t86 325.5q0 217 -85.5 328t-237.5 111q-153 0 -238.5 -110.5t-85.5 -328.5z" />
<glyph unicode="&#xf6;" horiz-adv-x="1005" d="M49 532q0 272 124.5 419t328.5 147q202 0 326 -147t124 -419q0 -269 -124.5 -416t-325.5 -147q-204 0 -328.5 146.5t-124.5 416.5zM178 532q0 -213 86 -325.5t238 -112.5q151 0 237 112.5t86 325.5q0 217 -85.5 328t-237.5 111q-153 0 -238.5 -110.5t-85.5 -328.5z M229 1366q0 37 25 60.5t63 23.5q37 0 61.5 -23.5t24.5 -60.5q0 -35 -24.5 -58.5t-61.5 -23.5q-38 0 -63 23.5t-25 58.5zM610 1366q0 37 22.5 60.5t57.5 23.5q40 0 63 -23t23 -61q0 -36 -23 -59t-63 -23q-35 0 -57.5 23.5t-22.5 58.5z" />
<glyph unicode="&#xf7;" horiz-adv-x="884" d="M145 481v103h590v-103h-590zM375 266q0 31 20.5 54.5t50.5 23.5q32 0 55 -23.5t23 -54.5t-23 -52t-55 -21q-31 0 -51 21t-20 52zM375 795q0 33 20 55t51 22q32 0 55 -22.5t23 -54.5q0 -29 -23 -50.5t-55 -21.5q-30 0 -50.5 21t-20.5 51z" />
<glyph unicode="&#xf8;" horiz-adv-x="1107" d="M102 532q0 272 124.5 419t328.5 147q63 0 147 -23l39 103h109l-55 -148q211 -142 211 -498q0 -269 -124.5 -416t-326.5 -147q-57 0 -141 23l-35 -98h-109l52 139q-220 133 -220 499zM229 537q0 -266 138 -379l292 798q-66 17 -104 17q-154 0 -240 -109.5t-86 -326.5z M457 104q47 -12 98 -12q151 0 238.5 109.5t87.5 316.5q0 278 -131 385z" />
<glyph unicode="&#xf9;" horiz-adv-x="929" d="M70 399v670h129v-635q0 -178 61.5 -257t192.5 -79q91 0 156.5 57.5t115.5 176.5v737h131v-1069h-127v133q-103 -164 -301 -164q-164 0 -261 108.5t-97 321.5zM276 1436l70 84l307 -287l-41 -53z" />
<glyph unicode="&#xfa;" horiz-adv-x="929" d="M70 399v670h129v-635q0 -178 61.5 -257t192.5 -79q91 0 156.5 57.5t115.5 176.5v737h131v-1069h-127v133q-103 -164 -301 -164q-164 0 -261 108.5t-97 321.5zM276 1233l308 287l69 -84l-336 -256z" />
<glyph unicode="&#xfb;" horiz-adv-x="929" d="M70 399v670h129v-635q0 -178 61.5 -257t192.5 -79q91 0 156.5 57.5t115.5 176.5v737h131v-1069h-127v133q-103 -164 -301 -164q-164 0 -261 108.5t-97 321.5zM188 1233l277 283l274 -283l-43 -53l-231 194l-232 -194z" />
<glyph unicode="&#xfc;" horiz-adv-x="929" d="M70 399v670h129v-635q0 -178 61.5 -257t192.5 -79q91 0 156.5 57.5t115.5 176.5v737h131v-1069h-127v133q-103 -164 -301 -164q-164 0 -261 108.5t-97 321.5zM190 1366q0 37 25.5 60.5t63.5 23.5q37 0 61.5 -23.5t24.5 -60.5q0 -35 -24.5 -58.5t-61.5 -23.5 q-38 0 -63.5 23.5t-25.5 58.5zM571 1366q0 37 22.5 60.5t57.5 23.5q40 0 63 -23t23 -61q0 -36 -23 -59t-63 -23q-35 0 -57.5 23.5t-22.5 58.5z" />
<glyph unicode="&#xfd;" horiz-adv-x="911" d="M8 1069h148l301 -887l301 887h141l-524 -1462h-133l143 413zM266 1233l307 287l70 -84l-336 -256z" />
<glyph unicode="&#xfe;" horiz-adv-x="1083" d="M143 -393v1843l129 43v-559q32 74 114.5 119t182.5 45q193 0 302.5 -145t109.5 -418t-111.5 -419.5t-304.5 -146.5q-192 0 -293 162v-481zM266 332q102 -236 281 -236q150 0 230.5 110t80.5 329q0 214 -80 327t-223 113q-195 0 -289 -248v-395z" />
<glyph unicode="&#xff;" horiz-adv-x="911" d="M8 1069h148l301 -887l301 887h141l-524 -1462h-133l143 413zM182 1366q0 37 25 60.5t63 23.5q37 0 61.5 -23.5t24.5 -60.5q0 -35 -24.5 -58.5t-61.5 -23.5q-38 0 -63 23.5t-25 58.5zM563 1366q0 37 22.5 60.5t57.5 23.5q40 0 63 -23t23 -61q0 -36 -23 -59t-63 -23 q-35 0 -57.5 23.5t-22.5 58.5z" />
<glyph unicode="&#x152;" horiz-adv-x="1955" d="M102 707q0 178 44 319.5t122 233.5t184 140t232 48q326 0 477 -272v241h719v-131h-592v-495h379v-129h-379v-537h610v-125h-737v238q-149 -269 -477 -269q-126 0 -232 48t-184 138.5t-122 232t-44 319.5zM231 707q0 -297 122.5 -454t340.5 -157t341.5 157t123.5 454 q0 300 -122.5 455t-342.5 155t-341.5 -154t-121.5 -456z" />
<glyph unicode="&#x153;" horiz-adv-x="1867" d="M102 532q0 272 124.5 419t328.5 147q131 0 230.5 -64.5t154.5 -191.5q107 256 383 256q199 0 320.5 -147t121.5 -406q0 -11 -6 -53h-753q7 -195 96 -297.5t239 -102.5q79 0 146.5 29.5t111.5 85.5l87 -76q-59 -77 -151.5 -119.5t-197.5 -42.5q-136 0 -238 66t-159 194 q-53 -128 -153 -194t-232 -66q-204 0 -328.5 146.5t-124.5 416.5zM231 532q0 -213 86 -325.5t238 -112.5q151 0 237.5 112.5t86.5 325.5q0 217 -86 328t-238 111q-152 -2 -238 -114t-86 -325zM1008 606h628q-13 183 -94.5 276t-218.5 93q-139 0 -220.5 -93t-94.5 -276z" />
<glyph unicode="&#x178;" horiz-adv-x="1105" d="M8 1417h150l393 -827l395 827h148l-478 -987v-430h-131v432zM278 1714q0 37 25 60.5t63 23.5q37 0 61.5 -23.5t24.5 -60.5q0 -35 -24.5 -58.5t-61.5 -23.5q-38 0 -63 23.5t-25 58.5zM659 1714q0 37 22.5 60.5t57.5 23.5q40 0 63 -23t23 -61q0 -36 -23 -59t-63 -23 q-35 0 -57.5 23.5t-22.5 58.5z" />
<glyph unicode="&#x2c6;" horiz-adv-x="688" d="M61 1233l277 283l274 -283l-43 -53l-231 194l-232 -194z" />
<glyph unicode="&#x2dc;" horiz-adv-x="942" d="M61 1335q29 85 92 138t130 53q50 0 94 -18.5t75 -44.5t59.5 -52t59 -44.5t60.5 -18.5q96 0 160 159l75 -65q-28 -90 -98 -143.5t-143 -53.5q-41 0 -80 18t-69 43.5t-58 51t-60.5 43.5t-64.5 18q-95 0 -156 -149z" />
<glyph unicode="&#x2000;" horiz-adv-x="937" />
<glyph unicode="&#x2001;" horiz-adv-x="1874" />
<glyph unicode="&#x2002;" horiz-adv-x="937" />
<glyph unicode="&#x2003;" horiz-adv-x="1874" />
<glyph unicode="&#x2004;" horiz-adv-x="624" />
<glyph unicode="&#x2005;" horiz-adv-x="468" />
<glyph unicode="&#x2006;" horiz-adv-x="312" />
<glyph unicode="&#x2007;" horiz-adv-x="312" />
<glyph unicode="&#x2008;" horiz-adv-x="234" />
<glyph unicode="&#x2009;" horiz-adv-x="374" />
<glyph unicode="&#x200a;" horiz-adv-x="104" />
<glyph unicode="&#x2010;" horiz-adv-x="737" d="M66 475v117h600v-117h-600z" />
<glyph unicode="&#x2011;" horiz-adv-x="737" d="M66 475v117h600v-117h-600z" />
<glyph unicode="&#x2012;" horiz-adv-x="737" d="M66 475v117h600v-117h-600z" />
<glyph unicode="&#x2013;" horiz-adv-x="1042" d="M61 475v117h906v-117h-906z" />
<glyph unicode="&#x2014;" horiz-adv-x="1560" d="M61 475v117h1424v-117h-1424z" />
<glyph unicode="&#x2018;" horiz-adv-x="389" d="M61 1405l125 51l127 -379l-80 -39z" />
<glyph unicode="&#x2019;" horiz-adv-x="389" d="M61 1077l127 379l125 -51l-172 -367z" />
<glyph unicode="&#x201a;" horiz-adv-x="389" d="M61 -285l127 379l125 -51l-172 -365z" />
<glyph unicode="&#x201c;" horiz-adv-x="647" d="M61 1401l125 51l129 -379l-82 -37zM319 1401l125 51l127 -379l-79 -37z" />
<glyph unicode="&#x201d;" horiz-adv-x="647" d="M61 1077l127 379l131 -51l-178 -367zM319 1077l127 379l125 -51l-172 -367z" />
<glyph unicode="&#x201e;" horiz-adv-x="647" d="M61 -285l127 379l131 -49l-178 -367zM319 -285l127 379l125 -49l-172 -367z" />
<glyph unicode="&#x2022;" horiz-adv-x="708" d="M61 725q0 110 84 190t201 80q118 0 202.5 -79.5t84.5 -190.5q0 -114 -84 -193t-203 -79q-118 0 -201.5 79.5t-83.5 192.5z" />
<glyph unicode="&#x2026;" horiz-adv-x="1994" d="M61 49q0 36 22.5 61t57.5 25t59.5 -25.5t24.5 -60.5q0 -33 -24.5 -56.5t-59.5 -23.5t-57.5 23.5t-22.5 56.5zM909 49q0 36 22.5 61t57.5 25t59.5 -25.5t24.5 -60.5q0 -33 -24.5 -56.5t-59.5 -23.5t-57.5 23.5t-22.5 56.5zM1753 49q0 36 23.5 61t58.5 25t59.5 -25.5 t24.5 -60.5q0 -33 -24.5 -56.5t-59.5 -23.5t-58.5 23.5t-23.5 56.5z" />
<glyph unicode="&#x202f;" horiz-adv-x="374" />
<glyph unicode="&#x2039;" horiz-adv-x="419" d="M61 483v103l283 237v-123l-211 -165l211 -170v-121z" />
<glyph unicode="&#x203a;" horiz-adv-x="419" d="M61 244v121l211 170l-211 165v123l283 -237v-103z" />
<glyph unicode="&#x205f;" horiz-adv-x="468" />
<glyph unicode="&#x20ac;" horiz-adv-x="1343" d="M61 438l80 115h101q-9 74 -9 158q0 69 9 127h-181l80 116h117q53 241 202.5 367.5t364.5 126.5q236 0 398 -162l-64 -98q-132 141 -334 141q-354 0 -446 -375h629l-78 -116h-572q-6 -41 -6 -133q0 -89 8 -152h385l-73 -115h-287q97 -354 440 -354q212 0 332 141l111 -47 q-170 -209 -443 -209q-214 0 -359.5 119t-201.5 350h-203z" />
<glyph unicode="&#x2122;" horiz-adv-x="1701" d="M61 1313v104h633v-104h-252v-721h-104v721h-277zM831 590v827h152l244 -604l248 604h151v-827h-104v676l-277 -676h-33l-276 676v-676h-105z" />
<glyph unicode="&#x25fc;" horiz-adv-x="1064" d="M0 0v1065h1065v-1065h-1065z" />
</font>
</defs>
</svg>
